# xmcd
#
# Track frame offsets:
#	150
#	28748
#	51635
#	67935
#	89222
#	108916
#	131500
#	155202
#	173548
#	195446
#	221488
#	246380
#	266998
#
# Disc length: 3849 seconds
#
# Revision: 1
# Processed by: cddbd v1.5.2PL0 Copyright (c) Steve Scherf et al.
# Submitted via: audiograbber 1.83.01
#
DISCID=c50f070d
DTITLE=Roland Tchakounte - Ngueme and smiling blues
DYEAR=2016
DGENRE=Blues
TTITLE0=Chubata Africa
TTITLE1=Nju bwoh man
TTITLE2=Ouba kih kamagnam
TTITLE3=Melena
TTITLE4=Ngueme and smiling blues
TTITLE5=Meden mbibou
TTITLE6=Kane bwoga Africa
TTITLE7=Meba gangsta
TTITLE8=Tchuite blues noum seou
TTITLE9=Immigres
TTITLE10=Hey hey, kanen baby
TTITLE11=Oulen nefa fide (jolie coeur)
TTITLE12=Misery
EXTD=
EXTT0=
EXTT1=
EXTT2=
EXTT3=
EXTT4=
EXTT5=
EXTT6=
EXTT7=
EXTT8=
EXTT9=
EXTT10=
EXTT11=
EXTT12=
PLAYORDER=
